<svg width="181" height="26" viewBox="0 0 181 26" fill="none" xmlns="http://www.w3.org/2000/svg">
<g id="Tickertape Logo">
<path id="Fill-1" d="M28.0154 16.8289L34.9163 4.87677L41.8166 16.8289H28.0154ZM15.998 4.87677H29.7991L22.8983 16.8289L15.998 4.87677ZM45.2806 0H1.70629C0.767918 0 0 0.767918 0 1.70687V8.08192H11.5257V13.6238H0V19.9988C0 20.9372 0.767918 21.7051 1.70629 21.7051H45.2806C46.219 21.7051 46.9869 20.9372 46.9869 19.9988V1.70687C46.9869 0.767918 46.219 0 45.2806 0Z" fill="#151E28"/>
<path id="wordmark" d="M67.8173 20.1918V6.39548H71.0345V20.1918H67.8173ZM69.4119 0C70.053 0 70.5569 0.204457 70.9526 0.59951C71.3477 0.995255 71.539 1.51298 71.539 2.12635C71.539 2.69953 71.3477 3.19022 70.9526 3.59844C70.5569 4.00805 70.053 4.21251 69.4119 4.21251C68.7985 4.21251 68.294 4.00805 67.8989 3.59844C67.49 3.19022 67.2856 2.69953 67.2856 2.12635C67.2856 1.51298 67.49 0.995255 67.8989 0.59951C68.294 0.204457 68.7985 0 69.4119 0ZM82.4125 16.9336C83.0529 16.4977 83.5034 15.9113 83.7349 15.1885L86.6111 16.3618C86.189 17.6565 85.3712 18.6926 84.1847 19.4696C82.9988 20.2604 81.6487 20.6423 80.1628 20.6423C78.8272 20.6423 77.6275 20.3283 76.5505 19.7011C75.4734 19.0877 74.6417 18.2158 74.0554 17.0972C73.4559 15.9799 73.1558 14.7116 73.1558 13.2943C73.1558 11.8624 73.4559 10.5809 74.0692 9.46296C74.6688 8.3589 75.5143 7.48631 76.5913 6.85908C77.6684 6.23254 78.8951 5.91858 80.2452 5.91858C81.8123 5.91858 83.1485 6.31433 84.2803 7.09126C85.4114 7.88137 86.1613 8.90434 86.5293 10.172L83.7078 11.3994C83.5034 10.6765 83.0806 10.0902 82.4395 9.64039C81.7991 9.19059 81.0492 8.97227 80.2175 8.97227C79.0996 8.97227 78.2 9.36732 77.5318 10.1449C76.8506 10.9219 76.5096 11.9719 76.5096 13.2943C76.5096 14.5889 76.8367 15.639 77.5048 16.4159C78.1591 17.2067 79.0587 17.6024 80.1905 17.6024C81.0222 17.6024 81.7714 17.3834 82.4125 16.9336ZM96.8984 6.39576H101.057L96.4486 11.6444L100.933 20.1921H97.1714L94.1579 14.2213L91.7045 17.0157V20.1921H88.4054V0.476905H91.7045V12.3805L96.8984 6.39576ZM114.676 12.5715C114.676 13.1717 114.608 13.7573 114.486 14.3298H104.547C104.561 15.4075 104.916 16.2663 105.584 16.9067C106.251 17.5477 107.124 17.8742 108.201 17.8742C109.073 17.8742 109.85 17.6697 110.545 17.2476C111.241 16.8249 111.704 16.2801 111.964 15.5843L114.622 16.6204C114.226 17.834 113.449 18.8015 112.277 19.5514C111.105 20.3013 109.742 20.6694 108.201 20.6694C106.838 20.6694 105.638 20.3693 104.602 19.7559C103.552 19.1564 102.748 18.2977 102.189 17.179C101.616 16.0611 101.33 14.7664 101.33 13.2943C101.33 11.8216 101.616 10.5262 102.189 9.42214C102.748 8.31807 103.552 7.45935 104.575 6.84598C105.597 6.23261 106.783 5.91865 108.146 5.91865C109.428 5.91865 110.559 6.19103 111.555 6.75034C112.536 7.30896 113.3 8.09976 113.858 9.10887C114.404 10.118 114.676 11.2761 114.676 12.5715ZM104.575 11.8216H111.322C111.282 10.8811 110.982 10.118 110.396 9.54482C109.809 8.97234 109.033 8.6861 108.092 8.6861C107.124 8.6861 106.32 8.97234 105.679 9.54482C105.038 10.1312 104.67 10.8811 104.575 11.8216ZM120.995 6.76392C121.581 6.42293 122.276 6.25936 123.08 6.25936C123.421 6.25936 124.218 6.30026 124.722 6.3959V9.58612C124.218 9.49048 123.421 9.44959 123.08 9.44959C122.031 9.44959 121.226 9.74969 120.654 10.3492C120.081 10.9626 119.795 11.7943 119.795 12.8713V20.1922H116.496V6.3959H119.564L119.727 8.15423C119.973 7.56858 120.395 7.10492 120.995 6.76392ZM132.42 2.21056V6.39604H136.305V9.24527H132.42V15.4483C132.42 16.28 132.61 16.8795 132.979 17.2343C133.347 17.5878 133.906 17.7652 134.656 17.7652C135.105 17.7652 135.651 17.6973 136.305 17.5608V20.1647C135.337 20.4509 134.437 20.5881 133.592 20.5881C132.161 20.5881 131.056 20.1647 130.28 19.3337C129.503 18.502 129.121 17.357 129.121 15.8981V9.24527H125.917V6.39604H129.121V2.57858L132.42 2.21056ZM61.4899 2.21056V6.39604H65.3753V9.24527H61.4899V15.4483C61.4899 16.28 61.6805 16.8795 62.0492 17.2343C62.4166 17.5878 62.9759 17.7652 63.7258 17.7652C64.1756 17.7652 64.721 17.6973 65.3753 17.5608V20.1647C64.4071 20.4509 63.5075 20.5881 62.6626 20.5881C61.2307 20.5881 60.1267 20.1647 59.3497 19.3337C58.5728 18.502 58.1909 17.357 58.1909 15.8981V9.24527H54.9868V6.39604H58.1909V2.57858L61.4899 2.21056ZM144.491 5.91844C146.263 5.91844 147.641 6.36894 148.609 7.28172C149.576 8.19519 150.054 9.50372 150.054 11.208V20.4335H147.177L146.999 18.488C146.604 19.1562 146.032 19.6878 145.268 20.0828C144.505 20.4779 143.646 20.6691 142.678 20.6691C141.301 20.6691 140.183 20.2741 139.324 19.4965C138.466 18.7195 138.043 17.6702 138.043 16.3617C138.043 15.0254 138.507 13.9623 139.42 13.1715C140.333 12.3807 141.533 11.9856 143.032 11.9856H146.835C146.835 11.9856 146.837 11.5351 146.837 10.6216C146.837 9.98125 146.618 9.49055 146.182 9.14956C145.746 8.80926 145.132 8.63183 144.355 8.63183C143.496 8.63183 142.801 8.83629 142.269 9.2452C141.724 9.65411 141.397 10.2127 141.301 10.9217L138.52 10.1718C138.752 8.80925 139.393 7.75925 140.47 7.02251C141.533 6.28646 142.869 5.91844 144.491 5.91844ZM146.809 14.8889V14.2755H143.741C142.924 14.2755 142.324 14.4391 141.928 14.7662C141.533 15.0934 141.342 15.5432 141.342 16.1163C141.342 16.6888 141.546 17.1386 141.969 17.4789C142.392 17.8199 142.964 17.9835 143.714 17.9835C144.655 17.9835 145.419 17.6972 145.977 17.1248C146.536 16.5661 146.809 15.8162 146.809 14.8889ZM159.897 5.91886C161.765 5.91886 163.224 6.58629 164.301 7.90937C165.378 9.24492 165.909 11.0448 165.909 13.2939C165.909 14.8068 165.664 16.1161 165.159 17.234C164.655 18.3519 163.946 19.1968 163.046 19.7831C162.133 20.3826 161.083 20.6689 159.87 20.6689C159.011 20.6689 158.247 20.506 157.58 20.1782C156.898 19.8517 156.366 19.3881 155.998 18.8017V26H152.699V6.39569H155.603L155.766 8.07224C156.162 7.40481 156.707 6.87322 157.429 6.49134C158.152 6.10945 158.97 5.91886 159.897 5.91886ZM161.683 16.6338C162.228 15.8298 162.501 14.698 162.501 13.2668C162.501 11.7947 162.215 10.6761 161.642 9.89918C161.056 9.12225 160.252 8.74036 159.229 8.74036C158.179 8.74036 157.389 9.13611 156.83 9.91305C156.271 10.69 155.998 11.8079 155.998 13.2668C155.998 14.7937 156.298 15.9386 156.884 16.7024C157.47 17.4655 158.261 17.8474 159.283 17.8474C160.333 17.8474 161.124 17.4384 161.683 16.6338ZM176.537 17.2479C177.232 16.8244 177.696 16.2796 177.955 15.5838L180.614 16.6199C180.218 17.8335 179.441 18.8017 178.269 19.5516C177.096 20.3015 175.733 20.6689 174.192 20.6689C172.829 20.6689 171.629 20.3695 170.593 19.7561C169.544 19.1566 168.739 18.2972 168.18 17.1792C167.607 16.0613 167.321 14.7666 167.321 13.2939C167.321 11.8218 167.607 10.5264 168.18 9.42235C168.739 8.31759 169.544 7.45956 170.566 6.8455C171.588 6.23213 172.774 5.91886 174.138 5.91886C175.419 5.91886 176.551 6.19124 177.546 6.75055C178.528 7.30916 179.291 8.09996 179.85 9.10908C180.395 10.1175 180.668 11.2763 180.668 12.5717C180.668 13.1712 180.6 13.7575 180.477 14.33H170.538C170.552 15.407 170.906 16.2665 171.575 16.9069C172.243 17.5473 173.115 17.8744 174.192 17.8744C175.065 17.8744 175.842 17.6699 176.537 17.2479ZM171.67 9.54502C171.03 10.1314 170.661 10.8813 170.566 11.8218H177.315C177.273 10.8813 176.974 10.1175 176.387 9.54502C175.801 8.97254 175.024 8.6863 174.083 8.6863C173.115 8.6863 172.311 8.97254 171.67 9.54502Z" fill="#151E28"/>
</g>
</svg>
