<svg xmlns="http://www.w3.org/2000/svg" width="220" height="220" fill="none"><g clip-path="url(#a)"><path fill="#fff" d="M220 0H0v220h220z"/><g clip-path="url(#b)"><path fill="#151E28" d="m115.209 116.608 7.442-13.216 7.44 13.216zm-12.958-13.216h14.882l-7.441 13.216zM133.827 98H86.84c-1.012 0-1.84.85-1.84 1.887v7.049h12.428v6.128H85v7.049c0 1.038.828 1.887 1.84 1.887h46.987c1.012 0 1.84-.849 1.84-1.887V99.887c0-1.038-.828-1.887-1.84-1.887"/></g><path fill="#535B62" d="m67.076 11 2.027 2.027-2.027 2.027-2.027-2.027zM72.48 11l2.027 2.027-2.027 2.027-2.027-2.027zM88.695 11l2.027 2.027-2.027 2.027-2.027-2.027zM99.504 11l2.027 2.027-2.027 2.027-2.026-2.027zM121.124 11l2.027 2.027-2.027 2.027-2.026-2.027zM137.338 11l2.027 2.027-2.027 2.027-2.026-2.027zM164.363 11l2.027 2.027-2.027 2.027-2.027-2.027zM61.67 16.405l2.027 2.027-2.027 2.026-2.026-2.026zM77.885 16.405l2.027 2.027-2.027 2.026-2.027-2.026zM83.29 16.405l2.027 2.027-2.026 2.026-2.027-2.026zM94.1 16.405l2.027 2.027-2.027 2.026-2.027-2.026zM104.91 16.405l2.026 2.027-2.026 2.026-2.027-2.026zM110.314 16.405l2.027 2.027-2.027 2.026-2.027-2.026zM121.124 16.405l2.027 2.027-2.027 2.026-2.026-2.026zM131.934 16.405l2.027 2.027-2.027 2.026-2.027-2.026zM142.744 16.405l2.026 2.027-2.026 2.026-2.027-2.026zM153.553 16.405l2.027 2.027-2.027 2.026-2.027-2.026zM67.076 21.81l2.027 2.027-2.027 2.026-2.027-2.026zM77.885 21.81l2.027 2.027-2.027 2.026-2.027-2.026zM88.695 21.81l2.027 2.027-2.027 2.026-2.027-2.026zM99.504 21.81l2.027 2.027-2.027 2.026-2.026-2.026zM104.91 21.81l2.026 2.027-2.026 2.026-2.027-2.026zM121.124 21.81l2.027 2.027-2.027 2.026-2.026-2.026zM131.934 21.81l2.027 2.027-2.027 2.026-2.027-2.026zM137.338 21.81l2.027 2.027-2.027 2.026-2.026-2.026zM148.149 21.81l2.027 2.027-2.027 2.026-2.027-2.026zM61.67 27.215l2.027 2.026-2.027 2.027-2.026-2.027zM67.076 27.215l2.027 2.026-2.027 2.027-2.027-2.027zM72.48 27.215l2.027 2.026-2.027 2.027-2.027-2.027zM83.29 27.215l2.027 2.026-2.026 2.027-2.027-2.027zM88.695 27.215l2.027 2.026-2.027 2.027-2.027-2.027zM94.1 27.215l2.027 2.026-2.027 2.027-2.027-2.027zM115.719 27.215l2.027 2.026-2.027 2.027-2.027-2.027zM121.124 27.215l2.027 2.026-2.027 2.027-2.026-2.027zM126.529 27.215l2.027 2.026-2.027 2.027-2.027-2.027zM137.338 27.215l2.027 2.026-2.027 2.027-2.026-2.027zM142.744 27.215l2.026 2.026-2.026 2.027-2.027-2.027zM148.149 27.215l2.027 2.026-2.027 2.027-2.027-2.027zM56.266 32.62l2.027 2.026-2.027 2.027-2.027-2.027zM77.885 32.62l2.027 2.026-2.027 2.027-2.027-2.027zM83.29 32.62l2.027 2.026-2.026 2.027-2.027-2.027zM88.695 32.62l2.027 2.026-2.027 2.027-2.027-2.027zM99.504 32.62l2.027 2.026-2.027 2.027-2.026-2.027zM110.314 32.62l2.027 2.026-2.027 2.027-2.027-2.027zM126.529 32.62l2.027 2.026-2.027 2.027-2.027-2.027zM153.553 32.62l2.027 2.026-2.027 2.027-2.027-2.027zM158.958 32.62l2.027 2.026-2.027 2.027-2.026-2.027zM61.67 38.024l2.027 2.027-2.027 2.027-2.026-2.027zM72.48 38.024l2.027 2.027-2.027 2.027-2.027-2.027zM83.29 38.024l2.027 2.027-2.026 2.027-2.027-2.027zM88.695 38.024l2.027 2.027-2.027 2.027-2.027-2.027zM104.91 38.024l2.026 2.027-2.026 2.027-2.027-2.027zM110.314 38.024l2.027 2.027-2.027 2.027-2.027-2.027zM115.719 38.024l2.027 2.027-2.027 2.027-2.027-2.027zM121.124 38.024l2.027 2.027-2.027 2.027-2.026-2.027zM126.529 38.024l2.027 2.027-2.027 2.027-2.027-2.027zM142.744 38.024l2.026 2.027-2.026 2.027-2.027-2.027zM148.149 38.024l2.027 2.027-2.027 2.027-2.027-2.027zM56.266 43.43l2.027 2.026-2.027 2.027-2.027-2.027zM67.076 43.43l2.027 2.026-2.027 2.027-2.027-2.027zM77.885 43.43l2.027 2.026-2.027 2.027-2.027-2.027zM88.695 43.43l2.027 2.026-2.027 2.027-2.027-2.027zM99.504 43.43l2.027 2.026-2.027 2.027-2.026-2.027zM110.314 43.43l2.027 2.026-2.027 2.027-2.027-2.027zM121.124 43.43l2.027 2.026-2.027 2.027-2.026-2.027zM131.934 43.43l2.027 2.026-2.027 2.027-2.027-2.027zM142.744 43.43l2.026 2.026-2.026 2.027-2.027-2.027zM153.553 43.43l2.027 2.026-2.027 2.027-2.027-2.027zM164.363 43.43l2.027 2.026-2.027 2.027-2.027-2.027zM56.266 48.834l2.027 2.027-2.027 2.027-2.027-2.027zM67.076 48.834l2.027 2.027-2.027 2.027-2.027-2.027zM72.48 48.834l2.027 2.027-2.027 2.027-2.027-2.027zM77.885 48.834l2.027 2.027-2.027 2.027-2.027-2.027zM83.29 48.834l2.027 2.027-2.026 2.027-2.027-2.027zM88.695 48.834l2.027 2.027-2.027 2.027-2.027-2.027zM94.1 48.834l2.027 2.027-2.027 2.027-2.027-2.027zM110.314 48.834l2.027 2.027-2.027 2.027-2.027-2.027zM115.719 48.834l2.027 2.027-2.027 2.027-2.027-2.027zM131.934 48.834l2.027 2.027-2.027 2.027-2.027-2.027zM158.958 48.834l2.027 2.027-2.027 2.027-2.026-2.027zM164.363 48.834l2.027 2.027-2.027 2.027-2.027-2.027zM23.836 54.239l2.027 2.027-2.027 2.027-2.026-2.027zM29.242 54.239l2.026 2.027-2.026 2.027-2.027-2.027zM45.456 54.239l2.026 2.027-2.026 2.027-2.027-2.027zM50.86 54.239l2.028 2.027-2.027 2.027-2.027-2.027zM56.266 54.239l2.027 2.027-2.027 2.027-2.027-2.027zM61.67 54.239l2.027 2.027-2.027 2.027-2.026-2.027zM72.48 54.239l2.027 2.027-2.027 2.027-2.027-2.027zM94.1 54.239l2.027 2.027-2.027 2.027-2.027-2.027zM121.124 54.239l2.027 2.027-2.027 2.027-2.026-2.027zM137.338 54.239l2.027 2.027-2.027 2.027-2.026-2.027zM142.744 54.239l2.026 2.027-2.026 2.027-2.027-2.027zM148.149 54.239l2.027 2.027-2.027 2.027-2.027-2.027zM158.958 54.239l2.027 2.027-2.027 2.027-2.026-2.027zM164.363 54.239l2.027 2.027-2.027 2.027-2.027-2.027zM169.768 54.239l2.027 2.027-2.027 2.027-2.027-2.027zM175.172 54.239l2.027 2.027-2.027 2.027-2.026-2.027zM185.983 54.239l2.027 2.027-2.027 2.027-2.027-2.027zM13.027 59.644l2.027 2.027-2.027 2.026L11 61.671zM23.836 59.644l2.027 2.027-2.027 2.026-2.026-2.026zM29.242 59.644l2.026 2.027-2.026 2.026-2.027-2.026zM34.646 59.644l2.027 2.027-2.027 2.026-2.027-2.026zM61.67 59.644l2.027 2.027-2.027 2.026-2.026-2.026zM67.076 59.644l2.027 2.027-2.027 2.026-2.027-2.026zM77.885 59.644l2.027 2.027-2.027 2.026-2.027-2.026zM88.695 59.644l2.027 2.027-2.027 2.026-2.027-2.026zM94.1 59.644l2.027 2.027-2.027 2.026-2.027-2.026zM99.504 59.644l2.027 2.027-2.027 2.026-2.026-2.026zM104.91 59.644l2.026 2.027-2.026 2.026-2.027-2.026zM110.314 59.644l2.027 2.027-2.027 2.026-2.027-2.026zM115.719 59.644l2.027 2.027-2.027 2.026-2.027-2.026zM137.338 59.644l2.027 2.027-2.027 2.026-2.026-2.026zM148.149 59.644l2.027 2.027-2.027 2.026-2.027-2.026zM153.553 59.644l2.027 2.027-2.027 2.026-2.027-2.026zM158.958 59.644l2.027 2.027-2.027 2.026-2.026-2.026zM164.363 59.644l2.027 2.027-2.027 2.026-2.027-2.026zM175.172 59.644l2.027 2.027-2.027 2.026-2.026-2.026zM191.387 59.644l2.027 2.027-2.027 2.026-2.027-2.026zM18.432 65.049l2.027 2.026-2.027 2.027-2.027-2.027zM23.836 65.049l2.027 2.026-2.027 2.027-2.026-2.027zM40.051 65.049l2.027 2.026-2.027 2.027-2.027-2.027zM45.456 65.049l2.026 2.026-2.026 2.027-2.027-2.027zM50.86 65.049l2.028 2.026-2.027 2.027-2.027-2.027zM61.67 65.049l2.027 2.026-2.027 2.027-2.026-2.027zM67.076 65.049l2.027 2.026-2.027 2.027-2.027-2.027zM77.885 65.049l2.027 2.026-2.027 2.027-2.027-2.027zM83.29 65.049l2.027 2.026-2.026 2.027-2.027-2.027zM88.695 65.049l2.027 2.026-2.027 2.027-2.027-2.027zM94.1 65.049l2.027 2.026-2.027 2.027-2.027-2.027zM99.504 65.049l2.027 2.026-2.027 2.027-2.026-2.027zM104.91 65.049l2.026 2.026-2.026 2.027-2.027-2.027zM110.314 65.049l2.027 2.026-2.027 2.027-2.027-2.027zM115.719 65.049l2.027 2.026-2.027 2.027-2.027-2.027zM121.124 65.049l2.027 2.026-2.027 2.027-2.026-2.027zM131.934 65.049l2.027 2.026-2.027 2.027-2.027-2.027zM137.338 65.049l2.027 2.026-2.027 2.027-2.026-2.027zM142.744 65.049l2.026 2.026-2.026 2.027-2.027-2.027zM148.149 65.049l2.027 2.026-2.027 2.027-2.027-2.027zM158.958 65.049l2.027 2.026-2.027 2.027-2.026-2.027zM169.768 65.049l2.027 2.026-2.027 2.027-2.027-2.027zM185.983 65.049l2.027 2.026-2.027 2.027-2.027-2.027zM196.792 65.049l2.027 2.026-2.027 2.027-2.026-2.027zM18.432 70.454l2.027 2.026-2.027 2.027-2.027-2.027zM29.242 70.454l2.026 2.026-2.026 2.027-2.027-2.027zM50.86 70.454l2.028 2.026-2.027 2.027-2.027-2.027zM77.885 70.454l2.027 2.026-2.027 2.027-2.027-2.027zM88.695 70.454l2.027 2.026-2.027 2.027-2.027-2.027zM99.504 70.454l2.027 2.026-2.027 2.027-2.026-2.027zM110.314 70.454l2.027 2.026-2.027 2.027-2.027-2.027zM126.529 70.454l2.027 2.026-2.027 2.027-2.027-2.027zM137.338 70.454l2.027 2.026-2.027 2.027-2.026-2.027zM142.744 70.454l2.026 2.026-2.026 2.027-2.027-2.027zM148.149 70.454l2.027 2.026-2.027 2.027-2.027-2.027zM153.553 70.454l2.027 2.026-2.027 2.027-2.027-2.027zM158.958 70.454l2.027 2.026-2.027 2.027-2.026-2.027zM180.578 70.454l2.026 2.026-2.026 2.027-2.027-2.027zM191.387 70.454l2.027 2.026-2.027 2.027-2.027-2.027zM196.792 70.454l2.027 2.026-2.027 2.027-2.026-2.027zM207.602 70.454l2.027 2.026-2.027 2.027-2.027-2.027zM29.242 75.858l2.026 2.027-2.026 2.027-2.027-2.027zM45.456 75.858l2.026 2.027-2.026 2.027-2.027-2.027zM50.86 75.858l2.028 2.027-2.027 2.027-2.027-2.027zM56.266 75.858l2.027 2.027-2.027 2.027-2.027-2.027zM61.67 75.858l2.027 2.027-2.027 2.027-2.026-2.027zM67.076 75.858l2.027 2.027-2.027 2.027-2.027-2.027zM72.48 75.858l2.027 2.027-2.027 2.027-2.027-2.027zM88.695 75.858l2.027 2.027-2.027 2.027-2.027-2.027zM94.1 75.858l2.027 2.027-2.027 2.027-2.027-2.027zM115.719 75.858l2.027 2.027-2.027 2.027-2.027-2.027zM126.529 75.858l2.027 2.027-2.027 2.027-2.027-2.027zM131.934 75.858l2.027 2.027-2.027 2.027-2.027-2.027zM137.338 75.858l2.027 2.027-2.027 2.027-2.026-2.027zM142.744 75.858l2.026 2.027-2.026 2.027-2.027-2.027zM148.149 75.858l2.027 2.027-2.027 2.027-2.027-2.027zM153.553 75.858l2.027 2.027-2.027 2.027-2.027-2.027zM164.363 75.858l2.027 2.027-2.027 2.027-2.027-2.027zM169.768 75.858l2.027 2.027-2.027 2.027-2.027-2.027zM175.172 75.858l2.027 2.027-2.027 2.027-2.026-2.027zM180.578 75.858l2.026 2.027-2.026 2.027-2.027-2.027zM185.983 75.858l2.027 2.027-2.027 2.027-2.027-2.027zM191.387 75.858l2.027 2.027-2.027 2.027-2.027-2.027zM196.792 75.858l2.027 2.027-2.027 2.027-2.026-2.027zM202.197 75.858l2.027 2.027-2.027 2.027-2.027-2.027zM23.836 81.263l2.027 2.027-2.027 2.027-2.026-2.027zM29.242 81.263l2.026 2.027-2.026 2.027-2.027-2.027zM40.051 81.263l2.027 2.027-2.027 2.027-2.027-2.027zM83.29 81.263l2.027 2.027-2.026 2.027-2.027-2.027zM94.1 81.263l2.027 2.027-2.027 2.027-2.027-2.027zM104.91 81.263l2.026 2.027-2.026 2.027-2.027-2.027zM110.314 81.263l2.027 2.027-2.027 2.027-2.027-2.027zM115.719 81.263l2.027 2.027-2.027 2.027-2.027-2.027zM131.934 81.263l2.027 2.027-2.027 2.027-2.027-2.027zM137.338 81.263l2.027 2.027-2.027 2.027-2.026-2.027zM142.744 81.263l2.026 2.027-2.026 2.027-2.027-2.027zM148.149 81.263l2.027 2.027-2.027 2.027-2.027-2.027zM158.958 81.263l2.027 2.027-2.027 2.027-2.026-2.027zM164.363 81.263l2.027 2.027-2.027 2.027-2.027-2.027zM175.172 81.263l2.027 2.027-2.027 2.027-2.026-2.027zM180.578 81.263l2.026 2.027-2.026 2.027-2.027-2.027zM185.983 81.263l2.027 2.027-2.027 2.027-2.027-2.027zM196.792 81.263l2.027 2.027-2.027 2.027-2.026-2.027zM207.602 81.263l2.027 2.027-2.027 2.027-2.027-2.027zM13.027 86.668l2.027 2.027-2.027 2.027L11 88.695zM29.242 86.668l2.026 2.027-2.026 2.027-2.027-2.027zM45.456 86.668l2.026 2.027-2.026 2.027-2.027-2.027zM50.86 86.668l2.028 2.027-2.027 2.027-2.027-2.027zM67.076 86.668l2.027 2.027-2.027 2.027-2.027-2.027zM72.48 86.668l2.027 2.027-2.027 2.027-2.027-2.027zM83.29 86.668l2.027 2.027-2.026 2.027-2.027-2.027zM88.695 86.668l2.027 2.027-2.027 2.027-2.027-2.027zM94.1 86.668l2.027 2.027-2.027 2.027-2.027-2.027zM104.91 86.668l2.026 2.027-2.026 2.027-2.027-2.027zM110.314 86.668l2.027 2.027-2.027 2.027-2.027-2.027zM115.719 86.668l2.027 2.027-2.027 2.027-2.027-2.027zM126.529 86.668l2.027 2.027-2.027 2.027-2.027-2.027zM148.149 86.668l2.027 2.027-2.027 2.027-2.027-2.027zM164.363 86.668l2.027 2.027-2.027 2.027-2.027-2.027zM169.768 86.668l2.027 2.027-2.027 2.027-2.027-2.027zM175.172 86.668l2.027 2.027-2.027 2.027-2.026-2.027zM185.983 86.668l2.027 2.027-2.027 2.027-2.027-2.027zM196.792 86.668l2.027 2.027-2.027 2.027-2.026-2.027zM202.197 86.668l2.027 2.027-2.027 2.027-2.027-2.027zM13.027 92.073l2.027 2.027-2.027 2.027L11 94.1zM23.836 92.073l2.027 2.027-2.027 2.027L21.81 94.1zM40.051 92.073l2.027 2.027-2.027 2.027-2.027-2.027zM50.86 92.073l2.028 2.027-2.027 2.027-2.027-2.027zM56.266 92.073l2.027 2.027-2.027 2.027L54.24 94.1zM77.885 92.073l2.027 2.027-2.027 2.027-2.027-2.027zM99.504 92.073l2.027 2.027-2.027 2.027-2.026-2.027zM110.314 92.073l2.027 2.027-2.027 2.027-2.027-2.027zM115.719 92.073l2.027 2.027-2.027 2.027-2.027-2.027zM121.124 92.073l2.027 2.027-2.027 2.027-2.026-2.027zM126.529 92.073l2.027 2.027-2.027 2.027-2.027-2.027zM131.934 92.073l2.027 2.027-2.027 2.027-2.027-2.027zM137.338 92.073l2.027 2.027-2.027 2.027-2.026-2.027zM153.553 92.073l2.027 2.027-2.027 2.027-2.027-2.027zM158.958 92.073l2.027 2.027-2.027 2.027-2.026-2.027zM169.768 92.073l2.027 2.027-2.027 2.027-2.027-2.027zM180.578 92.073l2.026 2.027-2.026 2.027-2.027-2.027zM185.983 92.073l2.027 2.027-2.027 2.027-2.027-2.027zM202.197 92.073l2.027 2.027-2.027 2.027-2.027-2.027zM207.602 92.073l2.027 2.027-2.027 2.027-2.027-2.027zM13.027 97.478l2.027 2.027-2.027 2.026L11 99.505zM23.836 97.478l2.027 2.027-2.027 2.026-2.026-2.026zM45.456 97.478l2.026 2.027-2.026 2.026-2.027-2.026zM50.86 97.478l2.028 2.027-2.027 2.026-2.027-2.026zM61.67 97.478l2.027 2.027-2.027 2.026-2.026-2.026zM77.885 97.478l2.027 2.027-2.027 2.026-2.027-2.026zM142.744 97.478l2.026 2.027-2.026 2.026-2.027-2.026zM148.149 97.478l2.027 2.027-2.027 2.026-2.027-2.026zM191.387 97.478l2.027 2.027-2.027 2.026-2.027-2.026zM196.792 97.478l2.027 2.027-2.027 2.026-2.026-2.026zM202.197 97.478l2.027 2.027-2.027 2.026-2.027-2.026zM13.027 102.883l2.027 2.027-2.027 2.026L11 104.91zM18.432 102.883l2.027 2.027-2.027 2.026-2.027-2.026zM40.051 102.883l2.027 2.027-2.027 2.026-2.027-2.026zM67.076 102.883l2.027 2.027-2.027 2.026-2.027-2.026zM77.885 102.883l2.027 2.027-2.027 2.026-2.027-2.026zM142.744 102.883l2.026 2.027-2.026 2.026-2.027-2.026zM158.958 102.883l2.027 2.027-2.027 2.026-2.026-2.026zM175.172 102.883l2.027 2.027-2.027 2.026-2.026-2.026zM196.792 102.883l2.027 2.027-2.027 2.026-2.026-2.026zM207.602 102.883l2.027 2.027-2.027 2.026-2.027-2.026zM23.836 108.288l2.027 2.026-2.027 2.027-2.026-2.027zM34.646 108.288l2.027 2.026-2.027 2.027-2.027-2.027zM40.051 108.288l2.027 2.026-2.027 2.027-2.027-2.027zM45.456 108.288l2.026 2.026-2.026 2.027-2.027-2.027zM50.86 108.288l2.028 2.026-2.027 2.027-2.027-2.027zM56.266 108.288l2.027 2.026-2.027 2.027-2.027-2.027zM67.076 108.288l2.027 2.026-2.027 2.027-2.027-2.027zM77.885 108.288l2.027 2.026-2.027 2.027-2.027-2.027zM142.744 108.288l2.026 2.026-2.026 2.027-2.027-2.027zM148.149 108.288l2.027 2.026-2.027 2.027-2.027-2.027zM153.553 108.288l2.027 2.026-2.027 2.027-2.027-2.027zM158.958 108.288l2.027 2.026-2.027 2.027-2.026-2.027zM164.363 108.288l2.027 2.026-2.027 2.027-2.027-2.027zM175.172 108.288l2.027 2.026-2.027 2.027-2.026-2.027zM185.983 108.288l2.027 2.026-2.027 2.027-2.027-2.027zM191.387 108.288l2.027 2.026-2.027 2.027-2.027-2.027zM202.197 108.288l2.027 2.026-2.027 2.027-2.027-2.027zM207.602 108.288l2.027 2.026-2.027 2.027-2.027-2.027zM23.836 113.692l2.027 2.027-2.027 2.027-2.026-2.027zM40.051 113.692l2.027 2.027-2.027 2.027-2.027-2.027zM61.67 113.692l2.027 2.027-2.027 2.027-2.026-2.027zM67.076 113.692l2.027 2.027-2.027 2.027-2.027-2.027zM72.48 113.692l2.027 2.027-2.027 2.027-2.027-2.027zM77.885 113.692l2.027 2.027-2.027 2.027-2.027-2.027zM164.363 113.692l2.027 2.027-2.027 2.027-2.027-2.027zM169.768 113.692l2.027 2.027-2.027 2.027-2.027-2.027zM175.172 113.692l2.027 2.027-2.027 2.027-2.026-2.027zM180.578 113.692l2.026 2.027-2.026 2.027-2.027-2.027zM191.387 113.692l2.027 2.027-2.027 2.027-2.027-2.027zM18.432 119.097l2.027 2.027-2.027 2.027-2.027-2.027zM29.242 119.097l2.026 2.027-2.026 2.027-2.027-2.027zM45.456 119.097l2.026 2.027-2.026 2.027-2.027-2.027zM61.67 119.097l2.027 2.027-2.027 2.027-2.026-2.027zM142.744 119.097l2.026 2.027-2.026 2.027-2.027-2.027zM153.553 119.097l2.027 2.027-2.027 2.027-2.027-2.027zM164.363 119.097l2.027 2.027-2.027 2.027-2.027-2.027zM169.768 119.097l2.027 2.027-2.027 2.027-2.027-2.027zM185.983 119.097l2.027 2.027-2.027 2.027-2.027-2.027zM202.197 119.097l2.027 2.027-2.027 2.027-2.027-2.027zM13.027 124.502l2.027 2.027-2.027 2.027L11 126.529zM18.432 124.502l2.027 2.027-2.027 2.027-2.027-2.027zM23.836 124.502l2.027 2.027-2.027 2.027-2.026-2.027zM29.242 124.502l2.026 2.027-2.026 2.027-2.027-2.027zM56.266 124.502l2.027 2.027-2.027 2.027-2.027-2.027zM72.48 124.502l2.027 2.027-2.027 2.027-2.027-2.027zM99.504 124.502l2.027 2.027-2.027 2.027-2.026-2.027zM104.91 124.502l2.026 2.027-2.026 2.027-2.027-2.027zM110.314 124.502l2.027 2.027-2.027 2.027-2.027-2.027zM121.124 124.502l2.027 2.027-2.027 2.027-2.026-2.027zM126.529 124.502l2.027 2.027-2.027 2.027-2.027-2.027zM131.934 124.502l2.027 2.027-2.027 2.027-2.027-2.027zM148.149 124.502l2.027 2.027-2.027 2.027-2.027-2.027zM153.553 124.502l2.027 2.027-2.027 2.027-2.027-2.027zM180.578 124.502l2.026 2.027-2.026 2.027-2.027-2.027zM196.792 124.502l2.027 2.027-2.027 2.027-2.026-2.027zM202.197 124.502l2.027 2.027-2.027 2.027-2.027-2.027zM18.432 129.907l2.027 2.027-2.027 2.027-2.027-2.027zM29.242 129.907l2.026 2.027-2.026 2.027-2.027-2.027zM34.646 129.907l2.027 2.027-2.027 2.027-2.027-2.027zM40.051 129.907l2.027 2.027-2.027 2.027-2.027-2.027zM45.456 129.907l2.026 2.027-2.026 2.027-2.027-2.027zM50.86 129.907l2.028 2.027-2.027 2.027-2.027-2.027zM61.67 129.907l2.027 2.027-2.027 2.027-2.026-2.027zM67.076 129.907l2.027 2.027-2.027 2.027-2.027-2.027zM77.885 129.907l2.027 2.027-2.027 2.027-2.027-2.027zM83.29 129.907l2.027 2.027-2.026 2.027-2.027-2.027zM88.695 129.907l2.027 2.027-2.027 2.027-2.027-2.027zM99.504 129.907l2.027 2.027-2.027 2.027-2.026-2.027zM115.719 129.907l2.027 2.027-2.027 2.027-2.027-2.027zM121.124 129.907l2.027 2.027-2.027 2.027-2.026-2.027zM126.529 129.907l2.027 2.027-2.027 2.027-2.027-2.027zM131.934 129.907l2.027 2.027-2.027 2.027-2.027-2.027zM137.338 129.907l2.027 2.027-2.027 2.027-2.026-2.027zM148.149 129.907l2.027 2.027-2.027 2.027-2.027-2.027zM175.172 129.907l2.027 2.027-2.027 2.027-2.026-2.027zM185.983 129.907l2.027 2.027-2.027 2.027-2.027-2.027zM191.387 129.907l2.027 2.027-2.027 2.027-2.027-2.027zM202.197 129.907l2.027 2.027-2.027 2.027-2.027-2.027zM13.027 135.312l2.027 2.027-2.027 2.027L11 137.339zM18.432 135.312l2.027 2.027-2.027 2.027-2.027-2.027zM34.646 135.312l2.027 2.027-2.027 2.027-2.027-2.027zM50.86 135.312l2.028 2.027-2.027 2.027-2.027-2.027zM56.266 135.312l2.027 2.027-2.027 2.027-2.027-2.027zM72.48 135.312l2.027 2.027-2.027 2.027-2.027-2.027zM83.29 135.312l2.027 2.027-2.026 2.027-2.027-2.027zM94.1 135.312l2.027 2.027-2.027 2.027-2.027-2.027zM99.504 135.312l2.027 2.027-2.027 2.027-2.026-2.027zM126.529 135.312l2.027 2.027-2.027 2.027-2.027-2.027zM158.958 135.312l2.027 2.027-2.027 2.027-2.026-2.027zM164.363 135.312l2.027 2.027-2.027 2.027-2.027-2.027zM175.172 135.312l2.027 2.027-2.027 2.027-2.026-2.027zM191.387 135.312l2.027 2.027-2.027 2.027-2.027-2.027zM196.792 135.312l2.027 2.027-2.027 2.027-2.026-2.027zM207.602 135.312l2.027 2.027-2.027 2.027-2.027-2.027zM18.432 140.717l2.027 2.027-2.027 2.026-2.027-2.026zM23.836 140.717l2.027 2.027-2.027 2.026-2.026-2.026zM29.242 140.717l2.026 2.027-2.026 2.026-2.027-2.026zM40.051 140.717l2.027 2.027-2.027 2.026-2.027-2.026zM45.456 140.717l2.026 2.027-2.026 2.026-2.027-2.026zM61.67 140.717l2.027 2.027-2.027 2.026-2.026-2.026zM72.48 140.717l2.027 2.027-2.027 2.026-2.027-2.026zM88.695 140.717l2.027 2.027-2.027 2.026-2.027-2.026zM110.314 140.717l2.027 2.027-2.027 2.026-2.027-2.026zM115.719 140.717l2.027 2.027-2.027 2.026-2.027-2.026zM121.124 140.717l2.027 2.027-2.027 2.026-2.026-2.026zM131.934 140.717l2.027 2.027-2.027 2.026-2.027-2.026zM137.338 140.717l2.027 2.027-2.027 2.026-2.026-2.026zM142.744 140.717l2.026 2.027-2.026 2.026-2.027-2.026zM153.553 140.717l2.027 2.027-2.027 2.026-2.027-2.026zM164.363 140.717l2.027 2.027-2.027 2.026-2.027-2.026zM169.768 140.717l2.027 2.027-2.027 2.026-2.027-2.026zM180.578 140.717l2.026 2.027-2.026 2.026-2.027-2.026zM185.983 140.717l2.027 2.027-2.027 2.026-2.027-2.026zM191.387 140.717l2.027 2.027-2.027 2.026-2.027-2.026zM196.792 140.717l2.027 2.027-2.027 2.026-2.026-2.026zM207.602 140.717l2.027 2.027-2.027 2.026-2.027-2.026zM18.432 146.122l2.027 2.026-2.027 2.027-2.027-2.027zM34.646 146.122l2.027 2.026-2.027 2.027-2.027-2.027zM50.86 146.122l2.028 2.026-2.027 2.027-2.027-2.027zM56.266 146.122l2.027 2.026-2.027 2.027-2.027-2.027zM83.29 146.122l2.027 2.026-2.026 2.027-2.027-2.027zM88.695 146.122l2.027 2.026-2.027 2.027-2.027-2.027zM94.1 146.122l2.027 2.026-2.027 2.027-2.027-2.027zM115.719 146.122l2.027 2.026-2.027 2.027-2.027-2.027zM121.124 146.122l2.027 2.026-2.027 2.027-2.026-2.027zM126.529 146.122l2.027 2.026-2.027 2.027-2.027-2.027zM131.934 146.122l2.027 2.026-2.027 2.027-2.027-2.027zM137.338 146.122l2.027 2.026-2.027 2.027-2.026-2.027zM142.744 146.122l2.026 2.026-2.026 2.027-2.027-2.027zM153.553 146.122l2.027 2.026-2.027 2.027-2.027-2.027zM169.768 146.122l2.027 2.026-2.027 2.027-2.027-2.027zM180.578 146.122l2.026 2.026-2.026 2.027-2.027-2.027zM185.983 146.122l2.027 2.026-2.027 2.027-2.027-2.027zM202.197 146.122l2.027 2.026-2.027 2.027-2.027-2.027zM207.602 146.122l2.027 2.026-2.027 2.027-2.027-2.027zM18.432 151.526l2.027 2.027-2.027 2.027-2.027-2.027zM34.646 151.526l2.027 2.027-2.027 2.027-2.027-2.027zM40.051 151.526l2.027 2.027-2.027 2.027-2.027-2.027zM45.456 151.526l2.026 2.027-2.026 2.027-2.027-2.027zM50.86 151.526l2.028 2.027-2.027 2.027-2.027-2.027zM56.266 151.526l2.027 2.027-2.027 2.027-2.027-2.027zM67.076 151.526l2.027 2.027-2.027 2.027-2.027-2.027zM72.48 151.526l2.027 2.027-2.027 2.027-2.027-2.027zM83.29 151.526l2.027 2.027-2.026 2.027-2.027-2.027zM99.504 151.526l2.027 2.027-2.027 2.027-2.026-2.027zM104.91 151.526l2.026 2.027-2.026 2.027-2.027-2.027zM110.314 151.526l2.027 2.027-2.027 2.027-2.027-2.027zM115.719 151.526l2.027 2.027-2.027 2.027-2.027-2.027zM131.934 151.526l2.027 2.027-2.027 2.027-2.027-2.027zM137.338 151.526l2.027 2.027-2.027 2.027-2.026-2.027zM148.149 151.526l2.027 2.027-2.027 2.027-2.027-2.027zM153.553 151.526l2.027 2.027-2.027 2.027-2.027-2.027zM180.578 151.526l2.026 2.027-2.026 2.027-2.027-2.027zM191.387 151.526l2.027 2.027-2.027 2.027-2.027-2.027zM196.792 151.526l2.027 2.027-2.027 2.027-2.026-2.027zM13.027 156.931l2.027 2.027-2.027 2.027L11 158.958zM23.836 156.931l2.027 2.027-2.027 2.027-2.026-2.027zM29.242 156.931l2.026 2.027-2.026 2.027-2.027-2.027zM34.646 156.931l2.027 2.027-2.027 2.027-2.027-2.027zM40.051 156.931l2.027 2.027-2.027 2.027-2.027-2.027zM50.86 156.931l2.028 2.027-2.027 2.027-2.027-2.027zM56.266 156.931l2.027 2.027-2.027 2.027-2.027-2.027zM61.67 156.931l2.027 2.027-2.027 2.027-2.026-2.027zM72.48 156.931l2.027 2.027-2.027 2.027-2.027-2.027zM83.29 156.931l2.027 2.027-2.026 2.027-2.027-2.027zM88.695 156.931l2.027 2.027-2.027 2.027-2.027-2.027zM94.1 156.931l2.027 2.027-2.027 2.027-2.027-2.027zM115.719 156.931l2.027 2.027-2.027 2.027-2.027-2.027zM137.338 156.931l2.027 2.027-2.027 2.027-2.026-2.027zM158.958 156.931l2.027 2.027-2.027 2.027-2.026-2.027zM169.768 156.931l2.027 2.027-2.027 2.027-2.027-2.027zM202.197 156.931l2.027 2.027-2.027 2.027-2.027-2.027zM29.242 162.336l2.026 2.027-2.026 2.027-2.027-2.027zM40.051 162.336l2.027 2.027-2.027 2.027-2.027-2.027zM45.456 162.336l2.026 2.027-2.026 2.027-2.027-2.027zM56.266 162.336l2.027 2.027-2.027 2.027-2.027-2.027zM83.29 162.336l2.027 2.027-2.026 2.027-2.027-2.027zM88.695 162.336l2.027 2.027-2.027 2.027-2.027-2.027zM99.504 162.336l2.027 2.027-2.027 2.027-2.026-2.027zM104.91 162.336l2.026 2.027-2.026 2.027-2.027-2.027zM121.124 162.336l2.027 2.027-2.027 2.027-2.026-2.027zM148.149 162.336l2.027 2.027-2.027 2.027-2.027-2.027zM164.363 162.336l2.027 2.027-2.027 2.027-2.027-2.027zM169.768 162.336l2.027 2.027-2.027 2.027-2.027-2.027zM175.172 162.336l2.027 2.027-2.027 2.027-2.026-2.027zM180.578 162.336l2.026 2.027-2.026 2.027-2.027-2.027zM185.983 162.336l2.027 2.027-2.027 2.027-2.027-2.027zM191.387 162.336l2.027 2.027-2.027 2.027-2.027-2.027zM196.792 162.336l2.027 2.027-2.027 2.027-2.026-2.027zM202.197 162.336l2.027 2.027-2.027 2.027-2.027-2.027zM207.602 162.336l2.027 2.027-2.027 2.027-2.027-2.027zM56.266 167.741l2.027 2.027-2.027 2.027-2.027-2.027zM72.48 167.741l2.027 2.027-2.027 2.027-2.027-2.027zM77.885 167.741l2.027 2.027-2.027 2.027-2.027-2.027zM88.695 167.741l2.027 2.027-2.027 2.027-2.027-2.027zM104.91 167.741l2.026 2.027-2.026 2.027-2.027-2.027zM110.314 167.741l2.027 2.027-2.027 2.027-2.027-2.027zM115.719 167.741l2.027 2.027-2.027 2.027-2.027-2.027zM121.124 167.741l2.027 2.027-2.027 2.027-2.026-2.027zM131.934 167.741l2.027 2.027-2.027 2.027-2.027-2.027zM137.338 167.741l2.027 2.027-2.027 2.027-2.026-2.027zM142.744 167.741l2.026 2.027-2.026 2.027-2.027-2.027zM153.553 167.741l2.027 2.027-2.027 2.027-2.027-2.027zM158.958 167.741l2.027 2.027-2.027 2.027-2.026-2.027zM164.363 167.741l2.027 2.027-2.027 2.027-2.027-2.027zM185.983 167.741l2.027 2.027-2.027 2.027-2.027-2.027zM191.387 167.741l2.027 2.027-2.027 2.027-2.027-2.027zM196.792 167.741l2.027 2.027-2.027 2.027-2.026-2.027zM207.602 167.741l2.027 2.027-2.027 2.027-2.027-2.027zM56.266 173.146l2.027 2.027-2.027 2.027-2.027-2.027zM67.076 173.146l2.027 2.027-2.027 2.027-2.027-2.027zM94.1 173.146l2.027 2.027L94.1 177.2l-2.027-2.027zM99.504 173.146l2.027 2.027-2.027 2.027-2.026-2.027zM104.91 173.146l2.026 2.027-2.026 2.027-2.027-2.027zM110.314 173.146l2.027 2.027-2.027 2.027-2.027-2.027zM115.719 173.146l2.027 2.027-2.027 2.027-2.027-2.027zM121.124 173.146l2.027 2.027-2.027 2.027-2.026-2.027zM148.149 173.146l2.027 2.027-2.027 2.027-2.027-2.027zM153.553 173.146l2.027 2.027-2.027 2.027-2.027-2.027zM164.363 173.146l2.027 2.027-2.027 2.027-2.027-2.027zM175.172 173.146l2.027 2.027-2.027 2.027-2.026-2.027zM185.983 173.146l2.027 2.027-2.027 2.027-2.027-2.027zM191.387 173.146l2.027 2.027-2.027 2.027-2.027-2.027zM202.197 173.146l2.027 2.027-2.027 2.027-2.027-2.027zM207.602 173.146l2.027 2.027-2.027 2.027-2.027-2.027zM61.67 178.551l2.027 2.027-2.027 2.026-2.026-2.026zM77.885 178.551l2.027 2.027-2.027 2.026-2.027-2.026zM99.504 178.551l2.027 2.027-2.027 2.026-2.026-2.026zM104.91 178.551l2.026 2.027-2.026 2.026-2.027-2.026zM110.314 178.551l2.027 2.027-2.027 2.026-2.027-2.026zM115.719 178.551l2.027 2.027-2.027 2.026-2.027-2.026zM126.529 178.551l2.027 2.027-2.027 2.026-2.027-2.026zM137.338 178.551l2.027 2.027-2.027 2.026-2.026-2.026zM142.744 178.551l2.026 2.027-2.026 2.026-2.027-2.026zM153.553 178.551l2.027 2.027-2.027 2.026-2.027-2.026zM158.958 178.551l2.027 2.027-2.027 2.026-2.026-2.026zM164.363 178.551l2.027 2.027-2.027 2.026-2.027-2.026zM185.983 178.551l2.027 2.027-2.027 2.026-2.027-2.026zM191.387 178.551l2.027 2.027-2.027 2.026-2.027-2.026zM202.197 178.551l2.027 2.027-2.027 2.026-2.027-2.026zM61.67 183.956l2.027 2.026-2.027 2.027-2.026-2.027zM67.076 183.956l2.027 2.026-2.027 2.027-2.027-2.027zM77.885 183.956l2.027 2.026-2.027 2.027-2.027-2.027zM83.29 183.956l2.027 2.026-2.026 2.027-2.027-2.027zM99.504 183.956l2.027 2.026-2.027 2.027-2.026-2.027zM104.91 183.956l2.026 2.026-2.026 2.027-2.027-2.027zM110.314 183.956l2.027 2.026-2.027 2.027-2.027-2.027zM115.719 183.956l2.027 2.026-2.027 2.027-2.027-2.027zM142.744 183.956l2.026 2.026-2.026 2.027-2.027-2.027zM153.553 183.956l2.027 2.026-2.027 2.027-2.027-2.027zM164.363 183.956l2.027 2.026-2.027 2.027-2.027-2.027zM169.768 183.956l2.027 2.026-2.027 2.027-2.027-2.027zM175.172 183.956l2.027 2.026-2.027 2.027-2.026-2.027zM180.578 183.956l2.026 2.026-2.026 2.027-2.027-2.027zM185.983 183.956l2.027 2.026-2.027 2.027-2.027-2.027zM191.387 183.956l2.027 2.026-2.027 2.027-2.027-2.027zM202.197 183.956l2.027 2.026-2.027 2.027-2.027-2.027zM56.266 189.361l2.027 2.026-2.027 2.027-2.027-2.027zM61.67 189.361l2.027 2.026-2.027 2.027-2.026-2.027zM67.076 189.361l2.027 2.026-2.027 2.027-2.027-2.027zM88.695 189.361l2.027 2.026-2.027 2.027-2.027-2.027zM131.934 189.361l2.027 2.026-2.027 2.027-2.027-2.027zM142.744 189.361l2.026 2.026-2.026 2.027-2.027-2.027zM175.172 189.361l2.027 2.026-2.027 2.027-2.026-2.027zM185.983 189.361l2.027 2.026-2.027 2.027-2.027-2.027zM56.266 194.765l2.027 2.027-2.027 2.027-2.027-2.027zM61.67 194.765l2.027 2.027-2.027 2.027-2.026-2.027zM83.29 194.765l2.027 2.027-2.026 2.027-2.027-2.027zM88.695 194.765l2.027 2.027-2.027 2.027-2.027-2.027zM94.1 194.765l2.027 2.027-2.027 2.027-2.027-2.027zM110.314 194.765l2.027 2.027-2.027 2.027-2.027-2.027zM115.719 194.765l2.027 2.027-2.027 2.027-2.027-2.027zM137.338 194.765l2.027 2.027-2.027 2.027-2.026-2.027zM142.744 194.765l2.026 2.027-2.026 2.027-2.027-2.027zM148.149 194.765l2.027 2.027-2.027 2.027-2.027-2.027zM175.172 194.765l2.027 2.027-2.027 2.027-2.026-2.027zM185.983 194.765l2.027 2.027-2.027 2.027-2.027-2.027zM191.387 194.765l2.027 2.027-2.027 2.027-2.027-2.027zM202.197 194.765l2.027 2.027-2.027 2.027-2.027-2.027zM61.67 200.17l2.027 2.027-2.027 2.027-2.026-2.027zM77.885 200.17l2.027 2.027-2.027 2.027-2.027-2.027zM83.29 200.17l2.027 2.027-2.026 2.027-2.027-2.027zM88.695 200.17l2.027 2.027-2.027 2.027-2.027-2.027zM94.1 200.17l2.027 2.027-2.027 2.027-2.027-2.027zM99.504 200.17l2.027 2.027-2.027 2.027-2.026-2.027zM104.91 200.17l2.026 2.027-2.026 2.027-2.027-2.027zM148.149 200.17l2.027 2.027-2.027 2.027-2.027-2.027zM153.553 200.17l2.027 2.027-2.027 2.027-2.027-2.027zM169.768 200.17l2.027 2.027-2.027 2.027-2.027-2.027zM175.172 200.17l2.027 2.027-2.027 2.027-2.026-2.027zM196.792 200.17l2.027 2.027-2.027 2.027-2.026-2.027zM88.695 205.575l2.027 2.027-2.027 2.027-2.027-2.027zM99.504 205.575l2.027 2.027-2.027 2.027-2.026-2.027zM104.91 205.575l2.026 2.027-2.026 2.027-2.027-2.027zM126.529 205.575l2.027 2.027-2.027 2.027-2.027-2.027zM131.934 205.575l2.027 2.027-2.027 2.027-2.027-2.027zM142.744 205.575l2.026 2.027-2.026 2.027-2.027-2.027zM148.149 205.575l2.027 2.027-2.027 2.027-2.027-2.027zM153.553 205.575l2.027 2.027-2.027 2.027-2.027-2.027zM180.578 205.575l2.026 2.027-2.026 2.027-2.027-2.027zM191.387 205.575l2.027 2.027-2.027 2.027-2.027-2.027zM196.792 205.575l2.027 2.027-2.027 2.027-2.026-2.027zM202.197 205.575l2.027 2.027-2.027 2.027-2.027-2.027zM207.602 205.575l2.027 2.027-2.027 2.027-2.027-2.027z"/><path stroke="#2F363F" stroke-width="5.405" d="M40.04 13.017H18.423a5.405 5.405 0 0 0-5.405 5.405v21.62a5.405 5.405 0 0 0 5.405 5.404H40.04a5.405 5.405 0 0 0 5.405-5.405v-21.62a5.405 5.405 0 0 0-5.405-5.404Z"/><path fill="#2F363F" d="M34.636 21.124h-10.81a2.7 2.7 0 0 0-2.702 2.703v10.81a2.7 2.7 0 0 0 2.703 2.702h10.81a2.7 2.7 0 0 0 2.702-2.703v-10.81a2.7 2.7 0 0 0-2.703-2.702"/><path stroke="#2F363F" stroke-width="5.405" d="M202.207 13.017h-21.62a5.404 5.404 0 0 0-5.404 5.405v21.62a5.404 5.404 0 0 0 5.404 5.404h21.62a5.405 5.405 0 0 0 5.405-5.405v-21.62a5.405 5.405 0 0 0-5.405-5.404Z"/><path fill="#2F363F" d="M196.802 21.124h-10.81a2.7 2.7 0 0 0-2.702 2.703v10.81a2.7 2.7 0 0 0 2.702 2.702h10.81a2.703 2.703 0 0 0 2.703-2.703v-10.81a2.703 2.703 0 0 0-2.703-2.702"/><path stroke="#2F363F" stroke-width="5.405" d="M40.04 175.183H18.423a5.405 5.405 0 0 0-5.405 5.405v21.619a5.405 5.405 0 0 0 5.405 5.405H40.04a5.405 5.405 0 0 0 5.405-5.405v-21.619a5.405 5.405 0 0 0-5.405-5.405Z"/><path fill="#2F363F" d="M34.636 183.29h-10.81a2.7 2.7 0 0 0-2.702 2.702v10.81a2.703 2.703 0 0 0 2.703 2.703h10.81a2.703 2.703 0 0 0 2.702-2.703v-10.81a2.7 2.7 0 0 0-2.703-2.702"/></g><defs><clipPath id="a"><rect width="220" height="220" fill="#fff" rx="16"/></clipPath><clipPath id="b"><path fill="#fff" d="M85 98h50.667v24H85z"/></clipPath></defs></svg>